# xmcd
#
# Track frame offsets: 
#        150
#        13844
#        23171
#        35386
#        49981
#        60256
#        71546
#        81318
#        90596
#        103009
#        113704
#        126940
#        144443
#
# Disc length: 2147 seconds
#
# Revision: 0
# Processed by: cddbd v1.5PL3 Copyright (c) Steve Scherf et al.
# Submitted via: ExactAudioCopy v0.90b4
#
DISCID=a908610d
DTITLE=Schwump - Kick in the Butt
DYEAR=1900
DGENRE=Ballad
TTITLE0=Kick in the Butt
TTITLE1=The Gardener's Coming Today
TTITLE2=The 'Aware' Song
TTITLE3=King in Heaven
TTITLE4=Ballad in E7
TTITLE5=Root Beer
TTITLE6=Along Came You
TTITLE7=Daisy Mae
TTITLE8=Happy Ducks
TTITLE9=You Just Can't Eat When You're Dead
TTITLE10=I Got the Grrrs
TTITLE11=You Drive Me Crazy (When I'm with You)
TTITLE12=Karate Cat
EXTD=
EXTT0=
EXTT1=
EXTT2=
EXTT3=
EXTT4=
EXTT5=
EXTT6=
EXTT7=
EXTT8=
EXTT9=
EXTT10=
EXTT11=
EXTT12=
PLAYORDER=
